<?xml version="1.0" encoding="UTF-8" standalone="no"?>
<svg
   data-name="Layer 1"
   width="698"
   height="698"
   viewBox="0 0 698 698"
   version="1.1"
   id="svg41"
   sodipodi:docname="default_female.svg"
   inkscape:version="1.1.2 (b8e25be833, 2022-02-05)"
   xmlns:inkscape="http://www.inkscape.org/namespaces/inkscape"
   xmlns:sodipodi="http://sodipodi.sourceforge.net/DTD/sodipodi-0.dtd"
   xmlns="http://www.w3.org/2000/svg"
   xmlns:svg="http://www.w3.org/2000/svg"
   xmlns:rdf="http://www.w3.org/1999/02/22-rdf-syntax-ns#"
   xmlns:cc="http://creativecommons.org/ns#"
   xmlns:dc="http://purl.org/dc/elements/1.1/">
  <sodipodi:namedview
     id="namedview43"
     pagecolor="#ffffff"
     bordercolor="#666666"
     borderopacity="1.0"
     inkscape:pageshadow="2"
     inkscape:pageopacity="0.0"
     inkscape:pagecheckerboard="0"
     showgrid="false"
     showguides="true"
     inkscape:guide-bbox="true"
     inkscape:snap-page="true"
     inkscape:zoom="0.87249284"
     inkscape:cx="418.91461"
     inkscape:cy="394.27258"
     inkscape:window-width="1440"
     inkscape:window-height="837"
     inkscape:window-x="-8"
     inkscape:window-y="-8"
     inkscape:window-maximized="1"
     inkscape:current-layer="svg41">
    <sodipodi:guide
       position="350,8.24"
       orientation="0,-1"
       id="guide478" />
    <sodipodi:guide
       position="149.57143,476.79475"
       orientation="0,-1"
       id="guide1311" />
    <sodipodi:guide
       position="344.98851,395.41872"
       orientation="1,0"
       id="guide1426" />
  </sodipodi:namedview>
  <defs
     id="defs9">
    <linearGradient
       id="b247946c-c62f-4d08-994a-4c3d64e1e98f-115"
       x1="349"
       y1="698"
       x2="349"
       gradientUnits="userSpaceOnUse">
      <stop
         offset="0"
         stop-color="gray"
         stop-opacity="0.25"
         id="stop2" />
      <stop
         offset="0.54"
         stop-color="gray"
         stop-opacity="0.12"
         id="stop4" />
      <stop
         offset="1"
         stop-color="gray"
         stop-opacity="0.1"
         id="stop6" />
    </linearGradient>
  </defs>
  <title
     id="title11">profile pic</title>
  <rect
     style="fill:#cccccc;fill-rule:evenodd;stroke-width:5.99542"
     id="rect692"
     width="698"
     height="697.99994"
     x="1.5765167e-14"
     y="4.7073456e-14" />
  <path
     d="m 350,698 c 66.75651,0.11545 96.53758,0 193.52071,0 C 530.93071,624.80261 477.29,560.84 477.29,560.84 h -264.2 c 0,0 -45.21,69.82478 -59.33,137.16 80.37202,0 126.00181,0.12879 196.24,0 z"
     fill="#6c63ff"
     id="path19"
     sodipodi:nodetypes="cccccc"
     style="stroke-width:1.03146" />
  <path
     d="M293.15,476.92H398.81a0,0,0,0,1,0,0v84.53A52.83,52.83,0,0,1,346,614.28h0a52.83,52.83,0,0,1-52.83-52.83V476.92a0,0,0,0,1,0,0Z"
     opacity="0.1"
     id="path23" />
  <path
     d="M296.5,473h99a3.35,3.35,0,0,1,3.35,3.35v81.18A52.83,52.83,0,0,1,346,610.37h0a52.83,52.83,0,0,1-52.83-52.83V476.35A3.35,3.35,0,0,1,296.5,473Z"
     fill="#fdb797"
     id="path25" />
  <path
     d="M544.34,617.82a152.07,152.07,0,0,0,105.66.29v-13H544.34Z"
     transform="translate(-251 -101)"
     opacity="0.1"
     id="path27" />
  <circle
     cx="346.37"
     cy="372.44"
     r="151.45"
     fill="#fdb797"
     id="circle29" />
  <ellipse
     cx="194.86"
     cy="372.3"
     rx="14.09"
     ry="26.42"
     fill="#fdb797"
     id="ellipse37" />
  <ellipse
     cx="497.8"
     cy="372.3"
     rx="14.09"
     ry="26.42"
     fill="#fdb797"
     id="ellipse39" />
  <metadata
     id="metadata810">
    <rdf:RDF>
      <cc:Work
         rdf:about="">
        <dc:title>profile pic</dc:title>
      </cc:Work>
    </rdf:RDF>
  </metadata>
  <path
     style="fill:#cccccc;stroke-width:0.573071"
     d="m 186.94588,602.08889 c -0.63038,-0.27924 -5.53013,-2.21848 -10.88834,-4.30944 -11.33727,-4.42418 -28.02215,-12.40571 -35.81692,-17.1337 -13.07974,-7.93364 -21.9327,-16.16392 -25.75394,-23.94254 -3.1929,-6.49955 -3.68899,-10.51854 -3.62751,-29.38784 0.12986,-39.8621 7.22738,-84.55038 20.02367,-126.07553 9.5355,-30.94357 24.05047,-62.14344 39.83035,-85.6152 30.85476,-45.89484 71.96303,-75.49776 121.04002,-87.16344 12.94654,-3.07741 24.04403,-4.59806 14.67789,-2.01126 -19.25031,5.31668 -40.14579,16.03542 -55.36146,28.39874 -6.61804,5.3774 -15.16258,13.77716 -20.66581,20.31563 -14.90278,17.70622 -27.04814,42.15997 -31.87799,64.1839 l -1.38242,6.30378 -2.69632,0.38703 c -4.55789,0.65425 -8.37006,4.35388 -10.89875,10.57701 -4.79485,11.80021 -3.0261,30.74691 3.58705,38.42419 2.06279,2.39472 5.33002,4.19387 7.61598,4.19387 1.81823,0 2.24995,0.22443 2.48034,1.28941 3.81862,17.65144 7.98182,29.48936 15.21218,43.25537 15.89903,30.27037 43.06735,55.25198 74.71123,68.69789 l 5.80881,2.46824 0.14977,22.9475 0.14977,22.9475 H 253.17674 213.09 l -3.14688,5.08732 c -4.35013,7.0325 -11.74874,20.08831 -16.52112,29.15365 -2.19856,4.17626 -4.29721,7.57573 -4.66368,7.5544 -0.36646,-0.0213 -1.18206,-0.26725 -1.81244,-0.54648 z"
     id="path1662" />
  <path
     style="fill:#6cb0ff;fill-opacity:1;stroke:none;stroke-width:0.975169px;stroke-linecap:butt;stroke-linejoin:miter;stroke-opacity:1"
     d="m 344.98851,221.20525 c 0,0 4.96498,9.69744 -3.44028,14.16591 -35.08943,18.65454 -133.73642,67.04 -108.30849,144.4185 31.51889,95.9136 111.74877,114.44236 111.74877,114.44236 v 126.97652 c 0,0 -160.45978,-26.85468 -166.76355,-81.35104 -6.30378,-54.49636 -51.00328,-318.65225 166.76355,-318.65225"
     id="path1543"
     sodipodi:nodetypes="cssccsc" />
  <path
     style="fill:#6cb0ff;fill-opacity:1;stroke:none;stroke-width:0.975169px;stroke-linecap:butt;stroke-linejoin:miter;stroke-opacity:1"
     d="m 344.98851,221.20525 c 0,0 -4.96498,9.69744 3.44028,14.16591 35.08943,18.65454 133.73642,67.04 108.30849,144.4185 -31.51889,95.9136 -111.74877,114.44236 -111.74877,114.44236 v 126.97652 c 0,0 160.45978,-26.85468 166.76355,-81.35104 6.30378,-54.49636 51.00328,-318.65225 -166.76355,-318.65225"
     id="path1543-4"
     sodipodi:nodetypes="cssccsc" />
</svg>
